<svg xmlns="http://www.w3.org/2000/svg" viewBox="0 0 512 512" width="512" height="512">
<rect width="512" height="512" rx="112" fill="#B3122B"/>
<path transform="translate(159.00 340.02) scale(0.2845)" d="M428-433L51-433L60-561L438-561Q478-561 502.50-567.50Q527-574 542-587L542-587Q560-602 560-637L560-637Q560-666 547-691.50Q534-717 508-746L508-746L555-781Q636-694 636-596L636-596Q636-558 625-527.50Q614-497 589-476L589-476Q564-455 527-444Q490-433 428-433L428-433ZM314-290L314-290Q286-290 268.50-306Q251-322 251-346L251-346Q251-370 268.50-387Q286-404 314-404L314-404Q343-404 359.50-387Q376-370 376-346L376-346Q376-322 359.50-306Q343-290 314-290ZM110 8L61 14Q55-1 50.50-22.50Q46-44 46-67L46-67Q46-125 71.50-168.50Q97-212 143-236.50Q189-261 249-261L249-261Q307-261 345.50-242Q384-223 410-193Q436-163 456-130L456-130Q467-111 476.50-102Q486-93 501-93L501-93Q528-93 542-119.50Q556-146 556-189L556-189Q556-237 545-279.50Q534-322 512-365L512-365L556-386Q586-344 611-285Q636-226 636-155L636-155Q636-77 604-32.50Q572 12 520 12L520 12Q495 12 478 1Q461-10 445-31L445-31Q415-71 374-93Q333-115 256-115L256-115Q188-115 147.50-90.50Q107-66 107-19L107-19Q107-4 110 8L110 8ZM447-512L447-512Q419-512 402.50-527.50Q386-543 386-568L386-568Q448-592 486.50-625.50Q525-659 525-716L525-716Q525-736 519.50-753.50Q514-771 501-785L501-785Q504-772 504-758L504-758Q504-707 477-674.50Q450-642 396-642L396-642Q341-642 309-676.50Q277-711 277-768L277-768Q277-822 311.50-861Q346-900 412-900L412-900Q465-900 502.50-872Q540-844 559.50-799.50Q579-755 579-703L579-703Q579-649 560-605.50Q541-562 511-537Q481-512 447-512ZM390-736L390-736Q420-736 434.50-746Q449-756 449-771L449-771Q449-786 434.50-796Q420-806 390-806L390-806Q359-806 346-796Q333-786 333-772L333-772Q333-756 346-746Q359-736 390-736Z" fill="#FBF6EA"/>
<path d="M56 392 C 140 364, 214 372, 256 428 C 298 372, 372 364, 456 392 C 372 388, 300 402, 256 446 C 212 402, 140 388, 56 392 Z" fill="#E8A317"/>
</svg>
